<?xml version="1.0" standalone="no"?>
<!DOCTYPE svg PUBLIC "-//W3C//DTD SVG 20010904//EN"
 "http://www.w3.org/TR/2001/REC-SVG-20010904/DTD/svg10.dtd">
<svg version="1.0" xmlns="http://www.w3.org/2000/svg"
 width="1280.000000pt" height="1229.000000pt" viewBox="0 0 1280.000000 1229.000000"
 preserveAspectRatio="xMidYMid meet">
<metadata>
Created by potrace 1.15, written by Peter Selinger 2001-2017
</metadata>
<g transform="translate(0.000000,1229.000000) scale(0.100000,-0.100000)"
fill="#000000" stroke="none">
<path d="M7500 12279 c-1191 -94 -2257 -677 -3006 -1644 -486 -627 -825 -1442
-939 -2255 -61 -436 -61 -945 0 -1355 81 -541 270 -1078 535 -1514 448 -739
1058 -1247 1785 -1486 268 -89 479 -129 752 -144 1322 -74 2457 853 2682 2189
65 385 51 788 -40 1128 -83 316 -245 627 -442 852 -290 330 -734 546 -1087
527 -180 -10 -329 -54 -569 -168 -287 -137 -461 -295 -579 -527 -101 -198
-127 -320 -119 -567 6 -181 19 -262 68 -408 104 -313 288 -521 536 -605 69
-24 94 -27 213 -27 115 0 146 3 205 23 88 29 162 70 243 134 l63 50 -7 -43
c-16 -113 -46 -263 -65 -320 -28 -86 -78 -158 -179 -260 -216 -217 -475 -311
-820 -296 -373 17 -762 188 -1052 465 -299 285 -523 719 -608 1177 -42 226
-53 591 -25 829 137 1170 887 2110 1948 2441 540 168 1145 161 1720 -20 1136
-358 2014 -1316 2386 -2605 174 -604 224 -1274 145 -1950 -66 -567 -232 -1137
-483 -1655 -240 -494 -504 -874 -866 -1244 -549 -561 -1190 -945 -1925 -1154
-1333 -378 -2828 -84 -4035 792 -421 306 -828 709 -1148 1138 -590 792 -997
1772 -1171 2818 -62 374 -86 639 -93 1045 -12 669 31 1066 202 1860 48 223 24
433 -71 622 -123 245 -342 402 -595 428 -328 33 -642 -181 -763 -520 -66 -184
-172 -722 -225 -1140 -42 -335 -60 -586 -67 -950 -26 -1255 214 -2507 698
-3635 75 -175 274 -581 364 -740 590 -1053 1352 -1887 2294 -2510 733 -485
1522 -807 2355 -959 314 -57 593 -85 935 -93 1110 -25 2194 276 3150 874 388
243 703 496 1056 848 315 313 518 558 756 910 960 1417 1367 3214 1112 4915
-218 1461 -932 2777 -1974 3641 -860 713 -1929 1106 -2985 1098 -88 -1 -207
-6 -265 -10z"/>
</g>
</svg>
